<svg width="15" height="15" viewBox="0 0 15 15" fill="none" xmlns="http://www.w3.org/2000/svg">
<path d="M12.4315 9.73763C11.6989 9.73763 11.0399 10.0459 10.572 10.5384L5.1049 7.86113C5.1237 7.73599 5.13665 7.60838 5.13665 7.47708C5.13665 7.34947 5.12432 7.22494 5.10644 7.10258L10.5655 4.45519C11.0337 4.95113 11.6955 5.26244 12.4315 5.26244C13.8503 5.26244 15 4.11244 15 2.69397C15 1.27519 13.8503 0.125488 12.4315 0.125488C11.0127 0.125488 9.86304 1.27519 9.86304 2.69397C9.86304 2.82157 9.87537 2.94579 9.89325 3.06847L4.43481 5.71585C3.96661 5.21991 3.30484 4.9086 2.56879 4.9086C1.1497 4.9086 0 6.0586 0 7.47708C0 8.89586 1.1497 10.0456 2.56848 10.0456C3.30114 10.0456 3.96014 9.73732 4.42803 9.24539L9.89479 11.9224C9.87568 12.0475 9.86273 12.1751 9.86273 12.3061C9.86273 13.7252 11.0124 14.8746 12.4312 14.8746C13.85 14.8746 14.9997 13.7252 14.9997 12.3061C15 10.8873 13.8503 9.73763 12.4315 9.73763Z" fill="white"/>
</svg>
