<svg width="20" height="20" viewBox="0 0 20 20" fill="none" xmlns="http://www.w3.org/2000/svg">
<g clip-path="url(#clip0)">
<path d="M20 10C20 15.5228 15.5228 20 10 20C4.47725 20 0 15.5228 0 10C0 4.47725 4.47725 -2.98023e-07 10 -2.98023e-07C15.5228 -2.98023e-07 20 4.47725 20 10Z" fill="#FFCC4D"/>
<path d="M19.3433 3.87103L16.82 3.42601L16.4061 0.76102C16.3605 0.467709 16.1333 0.235482 15.84 0.183773C15.5467 0.131527 15.2544 0.272641 15.1117 0.532651L13.8111 2.89544L11.2878 2.45042C10.9889 2.39764 10.6922 2.54432 10.5528 2.81156C10.4122 3.07879 10.4605 3.40711 10.6733 3.6221L12.4306 5.40379L11.1261 7.77489C10.9806 8.03875 11.0217 8.366 11.2289 8.58543C11.4361 8.80545 11.7595 8.86541 12.0322 8.73709L14.5422 7.54544L16.4939 9.52376C16.6272 9.65877 16.8067 9.73045 16.9883 9.73045C17.0944 9.73045 17.2017 9.70599 17.3 9.65658C17.57 9.52044 17.7206 9.22713 17.6745 8.92933L17.2595 6.25545L19.5206 5.18211C19.7939 5.05267 19.9517 4.76156 19.9106 4.46156C19.8706 4.16214 19.6411 3.92328 19.3433 3.87103Z" fill="#E95F28"/>
<path d="M8.7122 2.45166L6.18887 2.89668L4.88833 0.533887C4.74502 0.27334 4.45112 0.134424 4.15942 0.18501C3.86665 0.23667 3.6394 0.468896 3.59385 0.762256L3.17998 3.42725L0.656641 3.87227C0.358887 3.92446 0.129444 4.16387 0.089454 4.46333C0.0488779 4.76279 0.20669 5.05391 0.479444 5.18335L2.74058 6.25723L2.32559 8.93057C2.27949 9.22832 2.43057 9.52222 2.69946 9.65781C2.79893 9.70781 2.90557 9.73169 3.01167 9.73169C3.19336 9.73169 3.3728 9.6606 3.5061 9.525L5.45776 7.54668L7.96777 8.73833C8.23945 8.86724 8.56387 8.80664 8.77109 8.58667C8.97778 8.36777 9.01885 8.03999 8.87387 7.77612L7.56943 5.40557L9.32719 3.62334C9.5394 3.40835 9.58833 3.08057 9.44775 2.81279C9.30722 2.54502 9.00776 2.4 8.7122 2.45166Z" fill="#E95F28"/>
<path d="M10 11.6667C7.98721 11.6667 6.65167 11.4322 5 11.1111C4.62276 11.0383 3.88887 11.1111 3.88887 12.2222C3.88887 14.4444 6.44166 17.2222 10 17.2222C13.5578 17.2222 16.1111 14.4444 16.1111 12.2222C16.1111 11.1111 15.3773 11.0378 15 11.1111C13.3484 11.4322 12.0128 11.6667 10 11.6667Z" fill="#664500"/>
<path d="M5 12.2222C5 12.2222 6.66665 12.7778 10 12.7778C13.3333 12.7778 15 12.2222 15 12.2222C15 12.2222 13.8889 14.4444 10 14.4444C6.11113 14.4444 5 12.2222 5 12.2222Z" fill="white"/>
</g>
<defs>
<clipPath id="clip0">
<rect width="20" height="20" fill="white"/>
</clipPath>
</defs>
</svg>
