<svg width="20" height="20" viewBox="0 0 20 20" fill="none" xmlns="http://www.w3.org/2000/svg">
<path d="M18.75 5.61274H14.795C15.0788 5.41899 15.3225 5.22649 15.4925 5.05399C16.5 4.04024 16.5 2.39024 15.4925 1.37649C14.5138 0.391487 12.8063 0.390237 11.8263 1.37649C11.285 1.92024 9.84625 4.13399 10.045 5.61274H9.955C10.1525 4.13399 8.715 1.92024 8.17375 1.37649C7.19375 0.390237 5.48625 0.391487 4.5075 1.37649C3.5 2.39024 3.5 4.04024 4.50625 5.05399C4.6775 5.22649 4.92125 5.41899 5.205 5.61274H1.25C0.56125 5.61274 0 6.17399 0 6.86274V9.98774C0 10.3327 0.28 10.6127 0.625 10.6127H1.25V18.1127C1.25 18.8015 1.81125 19.3627 2.5 19.3627H17.5C18.1887 19.3627 18.75 18.8015 18.75 18.1127V10.6127H19.375C19.72 10.6127 20 10.3327 20 9.98774V6.86274C20 6.17399 19.4387 5.61274 18.75 5.61274ZM5.39375 2.25774C5.6475 2.00274 5.98375 1.86274 6.34125 1.86274C6.6975 1.86274 7.03375 2.00274 7.2875 2.25774C8.13 3.10524 8.9675 5.27024 8.67625 5.57149C8.67625 5.57149 8.62375 5.61274 8.445 5.61274C7.58125 5.61274 5.9325 4.71524 5.39375 4.17274C4.87 3.64524 4.87 2.78524 5.39375 2.25774ZM9.375 18.1127H2.5V10.6127H9.375V18.1127ZM9.375 9.36274H1.25V6.86274H8.445H9.375V9.36274ZM12.7125 2.25774C13.22 1.74899 14.1 1.75024 14.6063 2.25774C15.13 2.78524 15.13 3.64524 14.6063 4.17274C14.0675 4.71524 12.4188 5.61274 11.555 5.61274C11.3763 5.61274 11.3237 5.57274 11.3225 5.57149C11.0325 5.27024 11.87 3.10524 12.7125 2.25774ZM17.5 18.1127H10.625V10.6127H17.5V18.1127ZM18.75 9.36274H10.625V6.86274H11.555H18.75V9.36274Z" fill="white"/>
</svg>
