<svg width="48" height="48" viewBox="0 0 48 48" fill="none" xmlns="http://www.w3.org/2000/svg">
<g clip-path="url(#clip0)">
<path d="M48 24C48 37.2546 37.2546 48 24 48C10.7454 48 0 37.2546 0 24C0 10.7454 10.7454 -7.15256e-07 24 -7.15256e-07C37.2546 -7.15256e-07 48 10.7454 48 24Z" fill="#FFCC4D"/>
<path d="M24 29.1333C20.0454 29.1333 17.42 28.6719 14.1746 28.0413C13.432 27.8987 11.9906 28.0413 11.9906 30.2239C11.9906 34.592 17.008 40.0506 24 40.0506C30.992 40.0506 36.0094 34.5919 36.0094 30.2239C36.0094 28.0413 34.5667 27.8973 33.8254 28.0413C30.5814 28.672 27.956 29.1333 24 29.1333Z" fill="#664500"/>
<path d="M22.2 4.37462C21.0546 1.13333 17.5014 -0.568 14.2587 0.574578C12.2906 1.26938 10.8974 2.85598 10.3547 4.71469C8.76668 3.60798 6.68672 3.24798 4.72265 3.93997C1.48136 5.08395 -0.221371 8.64001 0.922614 11.8813C1.08527 12.3413 1.30125 12.7652 1.55191 13.1586C4.15324 17.9346 11.6693 21.2919 16.2212 21.3333C19.7359 18.4439 23.4825 11.1147 22.5105 5.76399C22.46 5.30005 22.36 4.83329 22.2 4.37462Z" fill="#E75A70"/>
<path d="M25.8 4.37463C26.9454 1.13334 30.5 -0.567984 33.7413 0.574594C35.7107 1.26928 37.1026 2.85588 37.6467 4.71459C39.2347 3.60788 41.3147 3.24788 43.2788 3.93998C46.5188 5.08397 48.2214 8.64002 47.0788 11.8813C46.9149 12.3413 46.7002 12.7653 46.4481 13.1587C43.8468 17.9346 36.3307 21.2919 31.7788 21.3333C28.2641 18.4439 24.5188 11.1147 25.4907 5.76401C25.5414 5.30006 25.6413 4.8333 25.8 4.37463Z" fill="#E75A70"/>
</g>
<defs>
<clipPath id="clip0">
<rect width="48" height="48" fill="white"/>
</clipPath>
</defs>
</svg>
