<svg width="20" height="20" viewBox="0 0 20 20" fill="none" xmlns="http://www.w3.org/2000/svg">
<path d="M20 10C20 15.5228 15.5228 20 10 20C4.47725 20 0 15.5228 0 10C0 4.47725 4.47725 -2.98023e-07 10 -2.98023e-07C15.5228 -2.98023e-07 20 4.47725 20 10Z" fill="#FFCC4D"/>
<path d="M14.1584 15.2105C14.1334 15.1111 13.5095 12.7778 10 12.7778C6.49 12.7778 5.86612 15.1111 5.84166 15.2105C5.81109 15.3311 5.86554 15.4561 5.97335 15.5183C6.0817 15.58 6.21724 15.5616 6.30611 15.4755C6.31666 15.465 7.39166 14.4444 10 14.4444C12.6078 14.4444 13.6834 15.465 13.6933 15.4755C13.7466 15.5277 13.8178 15.5555 13.8889 15.5555C13.9356 15.5555 13.9828 15.5438 14.0255 15.52C14.1344 15.4578 14.1889 15.3317 14.1584 15.2105Z" fill="#664500"/>
<path d="M8.05557 7.49999C8.05557 8.57446 7.43389 9.44443 6.6667 9.44443C5.89951 9.44443 5.27783 8.57441 5.27783 7.49999C5.27783 6.42612 5.89951 5.55556 6.6667 5.55556C7.43389 5.55556 8.05557 6.42612 8.05557 7.49999Z" fill="#664500"/>
<path d="M15.3082 7.49999C15.3082 8.57446 14.6865 9.44443 13.9193 9.44443C13.1521 9.44443 12.5304 8.57441 12.5304 7.49999C12.5304 6.42612 13.1521 5.55556 13.9193 5.55556C14.6865 5.55556 15.3082 6.42612 15.3082 7.49999Z" fill="#664500"/>
</svg>
