<svg width="20" height="20" viewBox="0 0 20 20" fill="none" xmlns="http://www.w3.org/2000/svg">
<g clip-path="url(#clip0)">
<path d="M10 -2.98023e-07C4.47779 -2.98023e-07 0 4.47778 0 10C0 13.3617 1.66445 16.3289 4.20777 18.1416C4.26553 14.565 2.96499 10.5555 0.779981 10.5555C0.522217 10.5555 0.31333 10.5922 0.139404 10.6572C0.307715 10.2366 0.672754 10.0005 1.35552 10.0005C3.72774 10.0005 5.05884 14.726 4.74053 18.4933C6.27002 19.4428 8.06778 20 10 20C11.9328 20 13.7311 19.4422 15.2611 18.4928C14.9406 14.7111 16.2711 10 18.645 10C19.33 10 19.6956 10.2367 19.8628 10.6572C19.6883 10.5922 19.4789 10.5556 19.22 10.5556C17.0322 10.5556 15.7317 14.555 15.7922 18.1417C18.3361 16.3289 20 13.3617 20 10C20 4.47778 15.5228 -2.98023e-07 10 -2.98023e-07Z" fill="#FFCC4D"/>
<path d="M10 6.43185e-07C4.47779 6.43185e-07 0 4.47778 0 10C0 10.6622 0.0683106 11.3089 0.191113 11.9355C0.321094 11.4561 0.524463 10.9961 0.778907 10.5556C0.52168 10.5556 0.31333 10.5922 0.139453 10.6572C0.286133 10.2906 0.59668 10.075 1.12222 10.0228C2.78442 7.70112 6.13169 6.11113 10 6.11113C13.8689 6.11113 17.2156 7.70058 18.8778 10.0223C19.4061 10.0745 19.7167 10.29 19.8628 10.6573C19.6889 10.5923 19.48 10.5556 19.2217 10.5556C19.4761 10.9962 19.6789 11.4561 19.8089 11.9356C19.9322 11.3089 20 10.6623 20 10C20 4.47778 15.5228 6.43185e-07 10 6.43185e-07Z" fill="#BDDDF4"/>
<path d="M4.08169 6.61666C3.55615 8.38112 4.14111 10.1128 5.38891 10.4844C6.63666 10.8567 8.07446 9.72775 8.59945 7.96334C9.12499 6.19947 8.54003 4.46725 7.29335 4.09556C6.04555 3.72388 4.60776 4.85279 4.08169 6.61666Z" fill="#F5F8FA"/>
<path d="M15.9178 6.61665C16.4433 8.3811 15.8583 10.1127 14.6111 10.4844C13.3627 10.8566 11.9255 9.72773 11.3999 7.96333C10.8744 6.19946 11.4594 4.46724 12.7061 4.09556C13.9539 3.72388 15.3916 4.85278 15.9178 6.61665Z" fill="#F5F8FA"/>
<path d="M10 10C8.46831 10 7.22221 11.2461 7.22221 12.7778V16.1111C7.22221 17.6428 8.46831 18.8889 10 18.8889C11.5317 18.8889 12.7778 17.6428 12.7778 16.1111V12.7778C12.7778 11.2461 11.5317 10 10 10Z" fill="#664500"/>
<path d="M0.77997 10.5556C0.522206 10.5556 0.31332 10.5922 0.139394 10.6572C0.179384 10.5578 0.232167 10.4706 0.295497 10.3922C-0.738877 11.6656 1.58222 15.8556 0.454433 20H4.04389C4.7039 16.1334 3.35722 10.5556 0.77997 10.5556Z" fill="#FCAB40"/>
<path d="M19.8628 10.6572C19.6889 10.5928 19.4794 10.5556 19.22 10.5556C16.6417 10.5556 15.2945 16.1123 15.9572 20H19.5461C18.4872 16.0861 20.4661 12.1733 19.8628 10.6572Z" fill="#FCAB40"/>
</g>
<defs>
<clipPath id="clip0">
<rect width="20" height="20" fill="white"/>
</clipPath>
</defs>
</svg>
