<svg width="48" height="48" viewBox="0 0 48 48" fill="none" xmlns="http://www.w3.org/2000/svg">
<g clip-path="url(#clip0)">
<path d="M48 24C48 37.2546 37.2546 48 24 48C10.7467 48 0 37.2546 0 24C0 10.7467 10.7467 -7.15256e-07 24 -7.15256e-07C37.2546 -7.15256e-07 48 10.7467 48 24Z" fill="#FFCC4D"/>
<path d="M20.6093 21.0933C20.5293 20.9133 18.6107 16.6972 14.6666 16.6972C10.7239 16.6972 8.80395 20.9133 8.72391 21.0933C8.60122 21.3693 8.68126 21.692 8.91586 21.8812C9.15188 22.0719 9.48516 22.0773 9.72915 21.8999C9.74649 21.8879 11.4118 20.6972 14.6665 20.6972C17.9012 20.6972 19.5652 21.8719 19.6025 21.8985C19.7198 21.9865 19.8612 22.0304 19.9999 22.0304C20.1466 22.0304 20.2945 21.9824 20.4145 21.8851C20.6534 21.696 20.732 21.3707 20.6093 21.0933Z" fill="#664500"/>
<path d="M41.3333 18C41.3333 22.7866 37.4534 26.6667 32.6666 26.6667C27.8799 26.6667 24 22.7866 24 18C24 13.2134 27.88 9.33328 32.6667 9.33328C37.4535 9.33328 41.3333 13.2134 41.3333 18Z" fill="#F5F8FA"/>
<path d="M36 18C36 19.8414 34.508 21.3333 32.6667 21.3333C30.8255 21.3333 29.3334 19.8413 29.3334 18C29.3334 16.1587 30.8255 14.6667 32.6667 14.6667C34.508 14.6667 36 16.1586 36 18Z" fill="#292F33"/>
<path d="M9.33328 28.3493C9.33328 33.6347 15.4613 40.3493 24 40.3493C32.5388 40.3493 38.6667 33.6826 38.6667 28.3493C38.6667 28.3493 24.8893 32.0239 9.33328 28.3493Z" fill="#664500"/>
<path d="M16 30.6707V39.952C16 43.952 18.6667 47.9521 24 47.9521C29.3333 47.9521 32 43.9521 32 39.952V30.7254C23.612 32.448 16 30.6707 16 30.6707Z" fill="#E75A70"/>
</g>
<defs>
<clipPath id="clip0">
<rect width="48" height="48" fill="white"/>
</clipPath>
</defs>
</svg>
