<svg width="20" height="20" viewBox="0 0 20 20" fill="none" xmlns="http://www.w3.org/2000/svg">
<g clip-path="url(#clip0)">
<path d="M20 10C20 15.5228 15.5228 20 10 20C4.47725 20 0 15.5228 0 10C0 4.47725 4.47725 -2.98023e-07 10 -2.98023e-07C15.5228 -2.98023e-07 20 4.47725 20 10Z" fill="#FFCC4D"/>
<path d="M3.88833 9.44442C3.80498 9.44442 3.72002 9.42553 3.64057 9.38607C3.36611 9.24828 3.25444 8.91439 3.3917 8.64052C3.42114 8.58217 4.12446 7.22221 6.11113 7.22221C8.09892 7.22221 8.80112 8.58275 8.83003 8.64052C8.96782 8.91498 8.85615 9.24828 8.58169 9.38607C8.30893 9.52274 7.9789 9.41273 7.83945 9.1433C7.81499 9.09887 7.37778 8.33329 6.11113 8.33329C4.82392 8.33329 4.38945 9.12938 4.38613 9.1372C4.28833 9.33222 4.09223 9.44442 3.88833 9.44442Z" fill="#664500"/>
<path d="M16.1111 9.44444C16.1945 9.44444 16.2795 9.42554 16.3589 9.38609C16.6334 9.2483 16.745 8.91441 16.6078 8.64053C16.5783 8.58218 15.875 7.22222 13.8883 7.22222C11.9005 7.22222 11.1983 8.58277 11.1694 8.64053C11.0316 8.91499 11.1433 9.2483 11.4178 9.38609C11.6906 9.52276 12.0206 9.41275 12.16 9.14332C12.1845 9.09888 12.6217 8.33331 13.8883 8.33331C15.1755 8.33331 15.61 9.1294 15.6139 9.13721C15.7111 9.33223 15.9072 9.44444 16.1111 9.44444Z" fill="#664500"/>
<path d="M18.4278 15.1717L16.3883 13.0667C15.9356 14.1139 14.8 16.0317 12.3944 16.8417L14.4417 18.8889C15.4017 19.8489 17.2194 20 18.3305 18.8889C19.4416 17.7778 19.3883 16.1322 18.4278 15.1717Z" fill="#E75A70"/>
<path d="M16.3906 13.0666C16.5706 12.6505 16.6467 12.3683 16.6495 12.3572C16.7239 12.06 16.5439 11.7595 16.2473 11.6845C15.9495 11.6095 15.6489 11.7894 15.5723 12.0861C15.5306 12.2506 14.4895 16.1111 10 16.1111C5.51005 16.1111 4.46894 12.2506 4.42729 12.0861C4.35063 11.7894 4.05063 11.6095 3.75229 11.6845C3.45561 11.7595 3.27563 12.06 3.35004 12.3572C3.36171 12.4056 4.62836 17.2222 10 17.2222C10.9162 17.2222 11.705 17.0745 12.3967 16.8416C14.8028 16.0317 15.9383 14.1139 16.3906 13.0666Z" fill="#664500"/>
</g>
<defs>
<clipPath id="clip0">
<rect width="20" height="20" fill="white"/>
</clipPath>
</defs>
</svg>
