<svg width="20" height="20" viewBox="0 0 20 20" fill="none" xmlns="http://www.w3.org/2000/svg">
<g clip-path="url(#clip0)">
<path d="M20 10C20 15.5228 15.5228 20 10 20C4.47725 20 0 15.5228 0 10C0 4.47725 4.47725 -2.98023e-07 10 -2.98023e-07C15.5228 -2.98023e-07 20 4.47725 20 10Z" fill="#FFCC4D"/>
<path d="M0.688874 6.12111C0.822224 6.25387 1.48721 6.65333 1.62056 7.05167C1.75391 7.45001 2.02056 9.70944 2.81944 10.3744C3.6439 11.0594 6.75113 10.8044 7.34669 10.5078C8.67838 9.84391 8.84171 7.99054 9.07725 7.05167C9.21002 6.51998 10.0089 6.51998 10.0089 6.51998C10.0089 6.51998 10.8084 6.51998 10.9412 7.05109C11.1767 7.99054 11.3412 9.84386 12.6717 10.5072C13.2678 10.8044 16.3751 11.0594 17.2006 10.3744C17.9979 9.70944 18.2645 7.44996 18.3979 7.05109C18.5301 6.65275 19.1962 6.25387 19.3296 6.12111C19.4634 5.98834 19.4634 5.45665 19.3296 5.32335C19.0634 5.05778 15.9218 4.8211 12.539 5.19059C11.864 5.26446 11.6073 5.4567 10.009 5.4567C8.41178 5.4567 8.15401 5.26446 7.47955 5.19112C4.09786 4.82111 0.955085 5.05778 0.688972 5.32335C0.55611 5.4567 0.55611 5.98834 0.688874 6.12111Z" fill="#292F33"/>
<path d="M15.1861 13.1272C15.0873 13.0378 14.9395 13.0322 14.8334 13.1111C14.8117 13.1272 12.6545 14.7223 10 14.7223C7.35225 14.7223 5.1878 13.1272 5.16666 13.1111C5.06055 13.0322 4.91275 13.0389 4.81387 13.1272C4.71553 13.2161 4.69332 13.3628 4.76163 13.4761C4.83331 13.5956 6.54883 16.3889 9.99996 16.3889C13.4511 16.3889 15.1672 13.5956 15.2383 13.4761C15.3067 13.3622 15.285 13.2161 15.1861 13.1272Z" fill="#664500"/>
</g>
<defs>
<clipPath id="clip0">
<rect width="20" height="20" fill="white"/>
</clipPath>
</defs>
</svg>
